<svg width="40" height="28" viewBox="0 0 40 28" fill="none" xmlns="http://www.w3.org/2000/svg">
<path d="M39.7481 13.2619C39.6851 13.2241 31.8892 0.0630318 20 0C8.11083 0.0630318 0.314861 13.2241 0.251889 13.2619L0 13.6779L0.251889 14.1065C0.302267 14.1443 7.93451 27.3054 20 27.3684C32.0781 27.3054 39.6977 14.1443 39.7481 14.1065L40 13.6779L39.7481 13.2619ZM19.8111 24.3303C14.0302 24.3177 9.25693 19.6407 9.24433 13.6905C9.25693 7.74031 14.0302 3.05074 19.8111 3.03813C25.5793 3.05074 30.3652 7.7277 30.3778 13.6905C30.3652 19.6407 25.5793 24.3177 19.8111 24.3303Z" fill="#F9F9F9"/>
</svg>
