<svg width="40" height="39" viewBox="0 0 40 39" fill="none" xmlns="http://www.w3.org/2000/svg">
<path d="M27.9411 29.5808C22.6917 33.9185 19.6621 38.6629 19.4971 38.9189C19.2572 38.6478 14.8177 33.4817 11.3531 29.5808C10.2883 28.3759 8.24854 26.4028 6.19379 23.9779H7.33365C7.7386 23.9779 8.11355 23.7369 8.27853 23.3604L11.6381 15.5887L14.9677 28.4662C15.0877 28.903 15.4776 29.2193 15.9276 29.2494C15.9426 29.2494 15.9576 29.2494 15.9726 29.2494C16.4075 29.2494 16.8125 28.9633 16.9475 28.5566L20.412 18.4353L21.8518 21.5681C22.0168 21.9446 22.3918 22.1705 22.7967 22.1705H35.2302C32.7555 25.3184 29.8908 27.9692 27.9411 29.5808ZM36.7 20.0619H23.4416L21.2069 15.1669C21.0269 14.7753 20.637 14.5343 20.217 14.5645C19.7971 14.5946 19.4221 14.8657 19.2872 15.2724L16.1076 24.5804L12.883 12.1396C12.778 11.7178 12.403 11.4016 11.9681 11.3714C11.5181 11.3262 11.1132 11.5823 10.9332 11.989L6.64374 21.8994H4.514C0.524503 16.6128 -2.50512 9.85022 2.9842 4.15697C5.84884 1.1748 8.5785 0.165677 10.9632 0.165677C16.0776 0.165677 19.4521 4.5787 19.6321 4.80462C19.8721 4.5787 24.4015 0 29.8908 0C32.4105 0 35.0652 1.00912 37.4949 3.94611C41.7543 9.09715 39.9996 15.0464 36.7 20.0619Z" fill="#F9F9F9"/>
</svg>
