<svg width="15" height="15" viewBox="0 0 15 15" fill="none" xmlns="http://www.w3.org/2000/svg">
<path d="M14.5151 5.04392L10.0184 4.3904L8.00828 0.315207C7.95338 0.20363 7.86305 0.113306 7.75148 0.0584037C7.47165 -0.0797386 7.13161 0.03538 6.99169 0.315207L4.98155 4.3904L0.484837 5.04392C0.360864 5.06163 0.247516 5.12008 0.160734 5.20863C0.05582 5.31646 -0.00199253 5.46154 0 5.61197C0.00199253 5.76241 0.0636271 5.9059 0.171361 6.01092L3.42479 9.18288L2.65615 13.6619C2.63813 13.7661 2.64966 13.8732 2.68943 13.9712C2.72921 14.0692 2.79564 14.154 2.8812 14.2162C2.96675 14.2783 3.068 14.3152 3.17348 14.3228C3.27895 14.3303 3.38441 14.3081 3.47792 14.2587L7.49999 12.1441L11.5221 14.2587C11.6319 14.3172 11.7594 14.3366 11.8816 14.3154C12.1897 14.2623 12.397 13.97 12.3438 13.6619L11.5752 9.18288L14.8286 6.01092C14.9172 5.92414 14.9756 5.81079 14.9933 5.68682C15.0411 5.37688 14.8251 5.08997 14.5151 5.04392ZM10.2062 8.73657L10.8455 12.4611L10.5927 10.9883L10.2062 8.73657Z" fill="#027C90"/>
</svg>
