<svg width="40" height="37" viewBox="0 0 40 37" fill="none" xmlns="http://www.w3.org/2000/svg">
<path d="M37.5946 4.01826C35.3404 1.32957 32.6172 0.014773 29.3041 0C29.289 0 29.289 0 29.2738 0C25.9758 0 23.0408 1.43298 22.2239 1.87618C21.997 1.99436 21.8457 2.083 21.7398 2.14209L21.6339 2.21595C21.4675 2.31937 21.2708 2.33414 21.0893 2.2455L20.7716 2.083V2.09777C20.6657 2.05345 20.5295 1.99436 20.3631 1.92049C19.7126 1.65458 19.0166 1.40344 18.3207 1.16707C16.7625 0.664787 14.3722 0.0738652 11.8154 0.0738652H11.8003C7.83661 0.0886382 4.79576 1.38867 2.45083 4.03304C0.816944 5.92399 0 7.91835 0 10.1491C0 12.4684 0.892587 14.9946 2.7534 17.8606C3.52496 19.0572 4.32678 20.1209 5.03782 21.0516C5.65809 21.8789 6.20272 22.588 6.53555 23.1493C7.2466 24.4198 7.60968 26.2074 7.9879 28.0835C8.06354 28.4529 8.13918 28.8222 8.21483 29.1915C8.65355 31.3927 9.24357 33.8302 10.2723 35.2189C11.0287 36.2235 11.7852 36.6371 12.9198 36.6519C13.6157 36.6223 14.0242 36.4008 14.5083 35.7803C15.0227 35.1007 15.3404 34.0075 15.5219 33.2245C15.8094 32.0279 15.9758 30.595 16.1573 29.2063C16.2935 28.1426 16.4297 27.0494 16.6112 26.0449C16.8835 24.671 17.2012 23.2528 18.0787 22.2777C18.5477 21.7607 19.2284 21.4504 19.9395 21.4504C20.9682 21.4504 21.8759 22.0414 22.4357 23.0607C23.0106 24.0653 23.3132 25.3062 23.5703 26.5028C23.7216 27.271 23.8578 28.0688 24.0091 28.8665C24.357 30.8904 24.6899 32.7814 25.2799 34.1405C25.8094 35.3075 26.4145 36.0905 27.5946 36.1053C28.8654 36.061 29.41 35.6178 29.9546 34.82C30.4236 34.0962 30.7716 32.9586 31.0136 31.3336C31.1346 30.654 31.2103 29.9302 31.3011 29.1915C31.5734 26.946 31.8608 24.6414 32.9501 22.913C33.4493 22.1743 34.115 21.3323 34.826 20.4459C37.1558 17.5356 40.0605 13.9162 40.0151 10.0161C40 7.94789 39.2133 5.96831 37.5946 4.01826Z" fill="#F9F9F9"/>
</svg>
